<svg xmlns="http://www.w3.org/2000/svg" fill="none" viewBox="0 0 24 24" id="Argo--Streamline-Svg-Logos" height="24" width="24"><desc>Argo Streamline Icon: https://streamlinehq.com</desc><path fill="#000000" fill-rule="evenodd" d="M18.67885 9.493625c-0.738075 -0.191925 -1.514975 0.120275 -1.915 0.769575 -0.3938 0.652975 -0.3119 1.487075 0.2014 2.051 0.5133 0.5639 1.33605 0.723675 2.023075 0.392825 0.068775 -0.032 0.126875 -0.10315 0.217 -0.072325 0.018975 0.368775 -0.02965 0.57155 -0.18735 0.77785 -0.430425 0.56325 -1.2249 0.50515 -1.629225 -0.11975 -0.1589 -0.24545 -0.339925 -0.31185 -0.543075 -0.1992 -0.214625 0.11975 -0.25495 0.330825 -0.106725 0.588125 0.20505 0.35935 0.531825 0.633575 0.921325 0.773125 0.069975 0.026075 0.060475 0.026075 0.1672 0.0664 0.122125 0.047425 0.498025 0.059275 0.672325 0.02725 0.0753 -0.015625 0.1494 -0.036625 0.221725 -0.062825 0.724625 -0.207375 1.2313 -0.8604 1.252175 -1.613825 0.013025 -0.5917 0.0154 -1.183375 -0.001175 -1.775075 -0.02795 -0.76215 -0.554625 -1.414825 -1.293675 -1.60315Zm-1.41105 1.666c-0.00455 -0.3936 0.2285 -0.751175 0.59045 -0.9059 0.361925 -0.154725 0.78145 -0.076125 1.062825 0.19915 0.281375 0.275275 0.369175 0.69295 0.222425 1.0582 -0.14675 0.36525 -0.4991 0.6061 -0.892725 0.6102 -0.257975 0.0032 -0.50665 -0.0964 -0.691075 -0.276825 -0.184425 -0.180425 -0.28945 -0.426825 -0.2919 -0.684825Z" clip-rule="evenodd" stroke-width="0.25"></path><path fill="#000000" fill-rule="evenodd" d="M23.65785 10.648725c-0.26085 -0.806325 -1.063625 -1.318575 -1.88535 -1.197625 -0.836325 0.118525 -1.4635 0.825725 -1.481225 1.670225 -0.017725 0.844525 0.579225 1.5774 1.40985 1.730925 0.830625 0.153525 1.650075 -0.317575 1.9354 -1.112625 0.050075 -0.118175 0.0855 -0.242025 0.105525 -0.368775 0.015325 -0.1674 0.00815 -0.3361 -0.02135 -0.501575 -0.017225 -0.074525 -0.0382 -0.14815 -0.06285 -0.22055Zm-1.661225 1.4727c-0.52885 -0.010625 -0.95 -0.44605 -0.943025 -0.974975 0.007 -0.5289 0.4395 -0.95305 0.96845 -0.9497 0.528925 0.003325 0.95605 0.4329 0.956375 0.96185 -0.00195 0.25805 -0.106625 0.5047 -0.290875 0.6854 -0.18425 0.180675 -0.4329 0.280525 -0.690925 0.277425Z" clip-rule="evenodd" stroke-width="0.25"></path><path fill="#000000" fill-rule="evenodd" d="M14.1659 10.791125c-0.09705 -0.470325 -0.39005 -0.87695 -0.805525 -1.11785 -0.41545 -0.2409 -0.913925 -0.2932 -1.370325 -0.1438 -0.46325 0.1407 -0.8459 0.469825 -1.05435 0.906775 -0.20845 0.436975 -0.223425 0.941475 -0.041275 1.39005 0.371125 0.90355 1.495225 1.317375 2.380975 0.875075 0.10435 -0.052175 0.182625 -0.12805 0.2834 0.028475 0.087875 0.13825 0.265925 0.1879 0.41265 0.115 0.151125 -0.053975 0.247025 -0.2029 0.2336 -0.362825 -0.0012 -0.24545 0 -0.4909 0 -0.7992 -0.015425 -0.256125 0.032 -0.577475 -0.03915 -0.8917Zm-1.67545 1.330425c-0.552575 -0.007125 -0.98655 -0.43755 -0.97115 -0.962825 0.025425 -0.5323 0.461975 -0.9522 0.99485 -0.956925 0.257275 0.004925 0.501825 0.1129 0.678825 0.2997 0.176975 0.1868 0.271625 0.4368 0.262675 0.693975 -0.005925 0.539525 -0.4162 0.9332 -0.9652 0.926075Z" clip-rule="evenodd" stroke-width="0.25"></path><path fill="#010101" fill-rule="evenodd" d="M16.625225 9.789125c-0.018975 -0.247825 -0.227675 -0.3747 -0.551375 -0.339125 -0.7675 0.076625 -1.39145 0.652225 -1.529625 1.41105 -0.056925 0.296425 -0.01305 0.5988 -0.0261 0.8478 0 0.267975 -0.001175 0.486175 0 0.70435 0.002375 0.3 0.135175 0.466 0.372325 0.468375 0.23715 0.00355 0.381825 -0.164825 0.385375 -0.460075 0.003575 -0.4174 -0.00355 -0.835975 0.002375 -1.25335 0.007125 -0.521725 0.368775 -0.93675 0.884575 -0.958075 0.305925 -0.01305 0.477875 -0.215825 0.46245 -0.42095Z" clip-rule="evenodd" stroke-width="0.25"></path><path fill="#fefefe" fill-rule="evenodd" d="M3.85665 15.326025c0.000925 0 0.00185 0.00275 0.00185 0.008275 0.000925 0.038675 0.00185 0.0764 0.002775 0.115075 0.005525 -0.02945 0.011025 -0.058925 0.017475 -0.0893 -0.0046 -0.05615 -0.048775 -0.027625 -0.0221 -0.03405Z" clip-rule="evenodd" stroke-width="0.25"></path><path fill="#fefefe" fill-rule="evenodd" d="M6.272425 12.1775c-0.000925 0.000925 -0.0028 0.000925 -0.00375 0.001875 0.00095 0.000925 0.002825 0.001875 0.00375 0.002825 -0.000925 -0.00095 0 -0.002825 0 -0.0047Z" clip-rule="evenodd" stroke-width="0.25"></path><path fill="#fefefe" fill-rule="evenodd" d="M4.750725 8.312625v0.000925h0.002825c-0.000925 0 -0.001875 -0.000925 -0.002825 -0.000925Z" clip-rule="evenodd" stroke-width="0.25"></path><path fill="#fe733e" fill-rule="evenodd" d="M6.0441 16.0745c0.011975 -0.1335 0.005525 -0.268825 0.0221 -0.4014 0.036825 -0.29185 0.00185 -0.590125 0.07825 -0.878275 0.03775 -0.14915 -0.08285 -0.324075 0.0718 -0.4548l-0.03865 -0.12705c-0.0331 -0.0671 -0.031375 -0.146125 0.0046 -0.211725 -0.0091 -0.2559 0.006325 -0.5121 0.046025 -0.76505 0.0138 -0.351675 0.02855 -0.703375 0.04235 -1.055975 -0.000925 -0.0009 -0.00275 -0.001825 -0.003675 -0.00275 -0.75215 0.345225 -1.46105 -0.1381 -1.58165 -0.7181 -0.079175 -0.38115 -0.036825 -0.7411 0.26055 -1.032025 0.0497 -0.0488 0.09205 -0.10495 0.138075 -0.15835 0.121525 -0.728225 0.036825 -1.3966 -0.585525 -1.917675 0.093 -0.0534 0.176775 -0.023 0.252275 -0.036825v-0.0009c-0.7632 -0.1915 -1.689375 0.3305 -1.995925 1.127775 -0.09535 0.2356 -0.138375 0.489075 -0.126125 0.74295 0.75675 -0.350775 1.43525 0.068125 1.62215 0.706125 0.19425 0.663775 -0.32315 1.3662 -1.01085 1.376325 -0.196925 0.00095 -0.392825 -0.028225 -0.580925 -0.086525 0.0138 0.3664 0.027925 0.732825 0.04235 1.099225 0.033725 0.23905 0.048175 0.480425 0.043275 0.721775 0.001825 0.057075 0.003675 0.11415 0.005525 0.17125 -0.00185 0.037725 -0.0037 0.075475 -0.005525 0.11415 0.047875 0.231375 0.0765 0.466325 0.0856 0.70245 -0.00165 -0.00605 -0.0029 -0.0122 -0.003675 -0.018425 0.000925 0.00645 0.002775 0.011975 0.003675 0.018425 0.018425 0.40045 0.029475 0.80185 0.058 1.202325 0.011975 0.165725 -0.047875 0.248575 -0.2007 0.290925 -0.180425 0.05065 -0.358115 0.1114 -0.5367175 0.168475 0.2356725 0.029625 0.4733675 0.0401 0.7107175 0.0313 0.255025 -0.005525 0.371025 -0.11875 0.395875 -0.371925 0.01565 -0.161125 0.029475 -0.322225 0.0442 -0.483325 0.016575 -0.29185 0.033125 -0.5846 0.0497 -0.87645h0.0359v0.833175c0.004625 0.126125 0.00645 0.253175 0.01475 0.3793 0.036825 0.588275 0.0543 0.5846 -0.532125 0.70335 -0.013425 0.004175 -0.0264 0.009725 -0.038675 0.016575 0.034975 0.023025 0.069975 0.046025 0.10495 0.069975 0.01075 0.001725 0.0202 0.008125 0.025775 0.017475 0.13995 0.000925 0.2808 0.0129 0.4189 0 0.251325 -0.023925 0.370075 -0.15835 0.3885 -0.407825 0.01105 -0.1602 0.027625 -0.320375 0.041425 -0.480575 -0.014325 -0.2115 0.002425 -0.423975 0.0497 -0.630625 -0.0009 -0.038675 -0.001825 -0.076425 -0.00275 -0.115075 0 -0.005525 -0.00185 -0.0092 -0.00185 -0.0083 -0.0267 0.00645 0.0175 -0.022075 0.0221 0.034075 0.0046 -0.02485 0.010125 -0.049725 0.014725 -0.074575v0.964825c0.002775 0.113225 0.00645 0.22555 0.0083 0.3388 0.0046 0.409675 -0.021175 0.4465 -0.411525 0.563425 -0.107725 0.0322 -0.220025 0.05155 -0.326825 0.08745 -0.077325 0.0267 -0.17585 0.011975 -0.248575 0.1031 0.317625 -0.01195 0.614975 0.02395 0.9105 -0.023925 0.30565 -0.049725 0.427175 -0.173075 0.489775 -0.471375 0.04605 -0.2191 0.065375 -0.44465 0.14915 -0.666525 0.0095 0.01515 0.0175 0.031175 0.023925 0.047875 0.04235 0.207125 0.0847 0.4152 0.125225 0.62235 0.057075 0.29 0.1749 0.41335 0.469525 0.4649 0.304725 0.052475 0.613125 0.016575 0.9289 0.02395 -0.0451 -0.07735 -0.116 -0.06445 -0.173075 -0.081025 -0.1961 -0.057075 -0.395875 -0.105875 -0.588275 -0.17215 -0.13995 -0.0488 -0.2403 -0.1381 -0.23845 -0.31025 0.0046 -0.471375 0.00185 -0.942725 0.00185 -1.4141h0.057075c0.02025 0.295525 0.044175 0.590125 0.059825 0.88565 0.035925 0.6831 0.116925 0.757675 0.8028 0.719925 0.038675 -0.064425 0.1335 -0.0138 0.1694 -0.08285 -0.1648 -0.0009 -0.308425 -0.0801 -0.4594 -0.130725 -0.08375 -0.028825 -0.137475 -0.11055 -0.130725 -0.19885 0.00735 -0.48425 -0.01105 -0.97035 0.0543 -1.45275 0.0396 0.405075 0.0709 0.811075 0.1022 1.21615 0.014725 0.18965 0.10035 0.33785 0.2992 0.35075 0.268825 0.018425 0.538575 0.0046 0.808325 0.0046 -0.140275 -0.0651 -0.2856 -0.118675 -0.43455 -0.160175 -0.329575 -0.105875 -0.327725 -0.106825 -0.29735 -0.441925Zm-2.07325 -6.9075c-0.00125 0.13475 -0.110175 0.24365 -0.2449 0.2449 -0.144525 0.00275 -0.253175 -0.0801 -0.255925 -0.2679 0.00125 -0.065125 0.029125 -0.126875 0.07715 -0.1709 0.048 -0.044 0.11195 -0.066425 0.17695 -0.062025 0.17215 -0.00275 0.249475 0.11325 0.246725 0.255925Zm1.1066 4.02685c0.0009 0.37285 -0.284475 0.697825 -0.610375 0.696925 -0.3075 -0.000925 -0.62145 -0.36365 -0.6104 -0.706125 -0.01655 -0.101275 -0.03405 -0.203475 -0.057075 -0.34525 0.220025 0.150075 0.405075 0.3038 0.652725 0.309325 0.253175 0.004625 0.452025 -0.1252 0.659175 -0.2771 0.0442 0.121525 -0.0672 0.21635 -0.03405 0.322225Z" clip-rule="evenodd" stroke-width="0.25"></path><path fill="#b5d2f3" fill-rule="evenodd" d="M2.745525 14.000325c-0.018425 -0.00645 -0.0359 -0.01475 -0.0534 -0.021175 -0.246805 -0.107875 -0.47417 -0.2556 -0.6729825 -0.4373 -0.7309775 -0.631575 -1.21339 -1.422375 -1.33031 -2.381675 -0.1325725 -1.090025 0.111395 -2.096275 0.8386925 -2.96075 0.663775 -0.78805 1.509825 -1.24745 2.519775 -1.353325 1.122225 -0.116925 2.130325 0.197025 2.97915 0.972175 0.692975 0.615225 1.130725 1.467425 1.2272 2.38905 0.09945 0.791075 -0.0646 1.592875 -0.46675 2.281325 -0.3747 0.639825 -0.8737 1.159075 -1.5485 1.487725 -0.018425 0.0092 -0.036825 0.018425 -0.05525 0.0267 -0.036425 0.0655 -0.03815 0.14475 -0.0046 0.21175 0.0144 -0.0155 0.03045 -0.0294 0.047875 -0.041425 1.019125 -0.5395 1.726175 -1.341375 2.056675 -2.457175 0.02855 -0.094825 0.072725 -0.141775 0.1786 -0.130725 0.143625 0.014725 0.1823 -0.081025 0.1823 -0.2007 0.0009 -0.4594 0.0012 -0.918475 0.0009 -1.37725 0 -0.098525 -0.023925 -0.20715 -0.126125 -0.2182 -0.1878 -0.0221 -0.210825 -0.159275 -0.248575 -0.29275 -0.207775 -0.760925 -0.656 -1.43425 -1.277825 -1.919525 -1.2981 -1.019125 -2.723225 -1.20325 -4.218325 -0.514625 -1.1112025 0.51095 -1.8191675 1.397525 -2.1395475 2.5842 -0.020255 0.07365 -0.0110475 0.161125 -0.1362525 0.13535 -0.1786025 -0.036825 -0.24581 0.068125 -0.24673 0.226475 -0.002761 0.459375 -0.0009175 0.91785 -0.0009175 1.37725 0 0.152825 0.0773325 0.23385 0.224635 0.197925 0.1353325 -0.033125 0.167555 0.034075 0.1951725 0.137175 0.1196825 0.436475 0.3198225 0.846725 0.590125 1.209725 0.39587 0.536725 0.87828 0.967575 1.491415 1.241925 -0.00185 -0.057075 -0.003675 -0.115075 -0.006425 -0.17215Z" clip-rule="evenodd" stroke-width="0.25"></path><path fill="#fe684b" fill-rule="evenodd" d="M2.746475 14.285775c-0.13625 0.38205 -0.4989775 0.37285 -0.8073875 0.4686 0.2319975 0.059825 0.46768 0.128875 0.6996875 0.0893 0.138075 -0.02395 0.164775 0.025775 0.185025 0.1077 0.00185 0.00645 0.002775 0.0129 0.004625 0.01935 0.0009 0.005525 0.00275 0.01195 0.003675 0.0184 -0.0091 -0.2364 -0.03775 -0.471675 -0.085625 -0.70335Z" clip-rule="evenodd" stroke-width="0.25"></path><path fill="#fe6446" fill-rule="evenodd" d="M6.144475 14.795725c0.2946 0.1335 0.572625 -0.0009 0.8571 -0.039575 -0.278025 -0.11785 -0.638 -0.057075 -0.784375 -0.4152 -0.155575 0.130725 -0.034975 0.30565 -0.072725 0.454775Z" clip-rule="evenodd" stroke-width="0.25"></path><path fill="#fed6c8" fill-rule="evenodd" d="M3.893525 15.28565c-0.0046 0.02485 -0.010125 0.0497 -0.014725 0.074575 -0.005525 0.02945 -0.011975 0.0589 -0.0175 0.0893 -0.047275 0.20665 -0.064025 0.419125 -0.0497 0.630625 0.06905 0.0359 0.0184 0.130725 0.081925 0.1694l0 -0.9639Z" clip-rule="evenodd" stroke-width="0.25"></path><path fill="#feebe3" fill-rule="evenodd" d="M3.353175 14.9486c-0.016575 0.29185 -0.03315 0.5846 -0.0497 0.87645 0.028525 -0.014725 0.057075 -0.02855 0.0856 -0.043275v-0.833175h-0.0359Z" clip-rule="evenodd" stroke-width="0.25"></path><path fill="#fe9166" fill-rule="evenodd" d="M2.4877925 16.968475h0.4750575c-0.0083 -0.005525 -0.0175 -0.01105 -0.0258 -0.017475 -0.034975 -0.023025 -0.06995 -0.04605 -0.10495 -0.069975 -0.120575 -0.002675 -0.2396 0.027575 -0.3443075 0.08745Z" clip-rule="evenodd" stroke-width="0.25"></path><path fill="#fe8f64" fill-rule="evenodd" d="M5.93285 16.968375h0.462175c-0.084575 -0.061675 -0.188425 -0.091075 -0.292775 -0.082875 -0.0359 0.069975 -0.13165 0.018425 -0.1694 0.082875Z" clip-rule="evenodd" stroke-width="0.25"></path><path fill="#e2f5fc" fill-rule="evenodd" d="M6.23935 13.975375c0.674825 -0.327725 1.172875 -0.846975 1.5485 -1.487725 0.402175 -0.68845 0.566225 -1.49025 0.46675 -2.281325 -0.09565 -0.921875 -0.53355 -1.77435 -1.2272 -2.389025 -0.848825 -0.77425 -1.8569 -1.089125 -2.97915 -0.971275 -1.009025 0.10495 -1.8559975 0.565275 -2.51977 1.353325 -0.7282175 0.864475 -0.971265 1.870725 -0.838695 2.96075 0.11692 0.9602 0.59933 1.7501 1.33031 2.381675 0.198885 0.1816 0.426235 0.329325 0.67298 0.4373 0.0175 0.00735 0.034975 0.014725 0.0534 0.021175 0.004925 -0.241375 -0.00955 -0.48275 -0.043275 -0.7218 -0.0184 -0.012875 -0.036825 -0.025775 -0.055225 -0.039575 -0.1821025 -0.140825 -0.35209 -0.29665 -0.5081975 -0.46585 -0.0487925 -0.0497 -0.109555 -0.09205 -0.109555 -0.173075 -0.1086325 0.07825 -0.1868875 0.02395 -0.25041 -0.0626 -0.356565 -0.467775 -0.5641125 -1.03205 -0.5956475 -1.619375 -0.0257775 -0.532125 0.022095 -1.049525 0.2458075 -1.5476 0.2732925 -0.6152 0.7306875 -1.1305 1.3091275 -1.474825 0.099425 -0.060775 0.156525 -0.00645 0.225575 0.03865 0.06625 -0.0026 0.12825 -0.033425 0.1703 -0.0847l-0.008275 -0.019325c-0.058925 -0.124275 -0.0617 -0.26515 0.0801 -0.298275 0.142675 -0.034075 0.2237 0.081925 0.224625 0.232 1.065175 -0.34985 2.055775 -0.208075 2.9497 0.474125 0.668375 0.510025 1.05135 1.19405 1.168275 2.028125 0.150975 1.07255 -0.21175 1.961875 -0.9593 2.714025 -0.088225 0.0905 -0.189375 0.167425 -0.300125 0.228325 -0.019325 0.010125 -0.03865 0.019325 -0.058 0.028525 -0.0397 0.252975 -0.0551 0.50915 -0.046025 0.76505 0.016575 -0.008275 0.03405 -0.017475 0.0534 -0.0267Z" clip-rule="evenodd" stroke-width="0.25"></path><path fill="#cdecf6" fill-rule="evenodd" d="M6.588275 12.98115c0.74665 -0.752175 1.109375 -1.6415 0.9593 -2.714025 -0.116925 -0.835025 -0.4999 -1.51905 -1.168275 -2.02815 -0.893925 -0.682175 -1.88545 -0.82305 -2.9497 -0.474125 -0.00185 0.0009 -0.003675 0.002775 -0.005525 0.003675 -0.083775 0.0534 -0.14915 0.168475 -0.26975 0.096675 -0.00735 -0.0046 -0.0138 -0.0083 -0.021175 -0.013825 -0.041925 0.05145 -0.104 0.0823 -0.1703 0.0847 -0.002775 0.01105 -0.00645 0.021175 -0.010125 0.032225 -0.076425 0.2145 -0.30565 0.270675 -0.4594025 0.39955 -0.41232 0.334575 -0.726325 0.77455 -0.9086625 1.27325 -0.29276 0.815675 -0.2329175 1.614775 0.15927 2.38625 0.0651125 0.12515 0.14056 0.244625 0.225555 0.357225 0.0463275 0.061325 0.06741 0.1381 0.05892 0.2145v0.00275c0 0.0801 0.06076 0.123375 0.109555 0.1731 0.156325 0.16895 0.326295 0.32475 0.50819 0.465825 0.0184 0.0129 0.036825 0.0267 0.055225 0.0396 -0.0138 -0.366425 -0.027925 -0.732825 -0.04235 -1.09925 -0.0009 0 -0.0009 -0.0009 -0.001825 -0.0009 -0.318545 -0.209 -0.552385 -0.475975 -0.5928925 -0.8737 -0.0506325 -0.490675 0.1555875 -0.853425 0.5569925 -1.117625 0.001825 -0.000925 0.003675 -0.002775 0.005525 -0.0037 -0.0124 -0.25385 0.030625 -0.507375 0.126125 -0.74295 0.30655 -0.796325 1.232725 -1.31925 1.995925 -1.12775 0.001 -0.000125 0.002 0.0002 0.00275 0.0009 0.50635 0.081925 0.922475 0.313 1.22075 0.737425 0.240675 0.3267 0.35955 0.727275 0.336025 1.132375 0.28725 0.218175 0.51925 0.474125 0.557 0.8525 0.050625 0.5091 -0.16665 0.88105 -0.594725 1.14065v0.004625c-0.013825 0.351675 -0.02855 0.70335 -0.04235 1.05595 0.02025 -0.0092 0.039575 -0.0184 0.058 -0.02855 0.11185 -0.0604 0.2137 -0.1377 0.30195 -0.2292Z" clip-rule="evenodd" stroke-width="0.25"></path><path fill="#fe6b3c" fill-rule="evenodd" d="M5.348225 10.1437c0.315775 -0.1556 0.62235 -0.071825 0.927075 0.028525 0.01105 0.003675 0.023 0.007375 0.03405 0.01105 0.023775 -0.405125 -0.095125 -0.805775 -0.336025 -1.132375 -0.298275 -0.4244 -0.7144 -0.6555 -1.22075 -0.737425h-0.002775c-0.075475 0.014725 -0.15925 -0.016575 -0.25225 0.036825 0.62235 0.521075 0.707975 1.18945 0.585525 1.917675 0.019325 -0.0092 0.03775 -0.0175 0.057075 -0.0267 0.0709 -0.032225 0.13995 -0.063525 0.208075 -0.097575Z" clip-rule="evenodd" stroke-width="0.25"></path><path fill="#fe6142" fill-rule="evenodd" d="M6.867 11.03675c-0.03775 -0.378375 -0.26975 -0.6343 -0.556975 -0.8525 -0.01105 -0.003675 -0.023025 -0.007375 -0.034075 -0.01105 -0.30565 -0.10035 -0.6113 -0.184125 -0.927075 -0.02855 -0.068125 0.034075 -0.138075 0.0663 -0.207125 0.098525 -0.01935 0.0092 -0.03775 0.017475 -0.057075 0.0267 -0.04605 0.052475 -0.0884 0.10955 -0.1381 0.15835 -0.2983 0.2909 -0.339725 0.650875 -0.26055 1.032025 0.120625 0.5809 0.8295 1.06425 1.582575 0.719925 0.000925 -0.000925 0.00275 -0.000925 0.003675 -0.00185 0.4281 -0.260525 0.646275 -0.633375 0.594725 -1.141575Zm-1.125925 1.0173c-0.35325 -0.003725 -0.669425 -0.22005 -0.8009 -0.54795 -0.131475 -0.3279 -0.052325 -0.7027 0.2005 -0.94945 0.2528 -0.24675 0.62945 -0.316775 0.95405 -0.177375 0.3246 0.1394 0.533175 0.46075 0.528325 0.813975 0.00145 0.23245 -0.091675 0.4555 -0.25805 0.61785 -0.16635 0.162375 -0.391575 0.250075 -0.623925 0.24295Z" clip-rule="evenodd" stroke-width="0.25"></path><path fill="#fe6143" fill-rule="evenodd" d="M2.622025 10.18695c-0.4014 0.264225 -0.6076175 0.62695 -0.5569825 1.11765 0.04051 0.397725 0.2743475 0.6647 0.5928825 0.873675 0.000925 0 0.000925 0.000925 0.00185 0.000925 0.188075 0.058375 0.383975 0.08755 0.5809 0.086525 0.6868 -0.010125 1.205125 -0.711625 1.01085 -1.376325 -0.186875 -0.638 -0.8663 -1.0569 -1.62215 -0.706125 -0.002625 0.00085 -0.0051 0.002075 -0.00735 0.003675Zm0.5487 1.86705c-0.314475 0.004075 -0.607025 -0.160525 -0.766785 -0.4314 -0.15975 -0.2709 -0.162215 -0.606575 -0.006465 -0.879775 0.15575 -0.273225 0.445875 -0.4421 0.76035 -0.442625 0.31575 -0.0061 0.6104 0.15805 0.771375 0.42975 0.161 0.2717 0.163475 0.608975 0.0065 0.883 -0.156975 0.274025 -0.449175 0.4425 -0.764975 0.44105Z" clip-rule="evenodd" stroke-width="0.25"></path><path fill="#070909" fill-rule="evenodd" d="M3.972725 13.2657c-0.03405 -0.03405 -0.058925 -0.080075 -0.116 -0.081 -0.01105 0.342475 0.301975 0.7052 0.610375 0.706125 0.326825 0.0009 0.6113 -0.324075 0.610375 -0.696925 -0.12335 0.063525 -0.2016 0.19425 -0.343375 0.232925 -0.28265 0.077325 -0.54225 0.058 -0.761375 -0.161125Z" clip-rule="evenodd" stroke-width="0.25"></path><path fill="#fdfcfb" fill-rule="evenodd" d="M5.111575 12.8717c-0.207125 0.1519 -0.405075 0.281725 -0.659175 0.2771 -0.24855 -0.0046 -0.432675 -0.15925 -0.652725 -0.309325 0.02395 0.141775 0.040525 0.24305 0.057075 0.34525 0.0571 0.001825 0.08195 0.04695 0.116 0.081 0.2182 0.219125 0.47875 0.23845 0.761375 0.161125 0.141775 -0.038675 0.220025 -0.168475 0.3434 -0.232925 -0.03315 -0.105875 0.07825 -0.2007 0.03405 -0.322225Z" clip-rule="evenodd" stroke-width="0.25"></path><path fill="#fea777" fill-rule="evenodd" d="M3.72405 8.91195c-0.065125 -0.005025 -0.129425 0.017175 -0.1776 0.061325 -0.04815 0.044125 -0.07585 0.106275 -0.076475 0.1716 0.00275 0.1878 0.1114 0.26975 0.255925 0.2679 0.134725 -0.001225 0.24365 -0.11015 0.2449 -0.244875 0.00275 -0.143625 -0.074575 -0.259625 -0.24675 -0.25595Z" clip-rule="evenodd" stroke-width="0.25"></path><path fill="#fdfefe" fill-rule="evenodd" d="M2.0282625 12.598225c0.00849 -0.076425 -0.0125925 -0.153175 -0.05892 -0.214525 -0.084675 -0.1128 -0.160105 -0.23225 -0.225555 -0.3572 -0.3921875 -0.771475 -0.45295 -1.5706 -0.1592675 -2.386275 0.1823375 -0.498675 0.49634 -0.938675 0.90866 -1.273225 0.153745 -0.1289 0.382995 -0.184125 0.459395 -0.39955 0.003925 -0.010575 0.0073 -0.021325 0.010125 -0.032225 -0.06905 -0.0451 -0.126125 -0.099425 -0.22555 -0.038675 -0.5784525 0.34435 -1.0358475 0.85965 -1.3091375 1.47485 -0.223715 0.498075 -0.2715875 1.01545 -0.24581 1.547575 0.03212 0.587225 0.2396075 1.151325 0.5956475 1.6194 0.063525 0.08655 0.1426975 0.14085 0.2504125 0.0626l0 -0.00275Z" clip-rule="evenodd" stroke-width="0.25"></path><path fill="#fbfdfe" fill-rule="evenodd" d="M3.4231 7.768625c0.00185 -0.0009 0.0037 -0.00275 0.005525 -0.003675 -0.001825 -0.15005 -0.081925 -0.26605 -0.224625 -0.232 -0.141775 0.034075 -0.139025 0.174925 -0.0801 0.2983l0.0083 0.019325c0.00675 0.005025 0.013825 0.00965 0.021175 0.0138 0.1206 0.07275 0.18595 -0.043275 0.269725 -0.09575Z" clip-rule="evenodd" stroke-width="0.25"></path><path fill="#fefefe" fill-rule="evenodd" d="M6.6232 11.194175c0.006425 -0.2324 -0.0814 -0.457525 -0.243525 -0.624175 -0.162125 -0.166625 -0.384775 -0.2606 -0.61725 -0.26055 -0.312725 -0.005175 -0.6043 0.15735 -0.76435 0.42605 -0.16005 0.2687 -0.1641 0.6025 -0.010625 0.875 0.1535 0.2725 0.44105 0.44205 0.7538 0.44445 0.23225 0.0068 0.4573 -0.081 0.623575 -0.243275 0.166275 -0.1623 0.259525 -0.38515 0.258375 -0.6175Zm-0.8387 0.09575c-0.0714 0.007075 -0.142475 -0.0166 -0.19535 -0.0651 -0.0529 -0.0485 -0.082625 -0.11725 -0.08175 -0.189 -0.004625 -0.07475 0.02235 -0.148025 0.074325 -0.201925 0.052 -0.053925 0.124225 -0.08355 0.1991 -0.081625 0.162025 0.01195 0.253175 0.106775 0.2725 0.276175 -0.0221 0.151 -0.099425 0.2587 -0.268825 0.261475Z" clip-rule="evenodd" stroke-width="0.25"></path><path fill="#fefefe" fill-rule="evenodd" d="M3.15805 10.3012c-0.314475 0.000525 -0.6046 0.1694 -0.7603525 0.4426 -0.1557525 0.273225 -0.153285 0.6089 0.006465 0.8798 0.1597375 0.270875 0.4523125 0.435475 0.7667875 0.4314 0.3158 0.001425 0.608 -0.167025 0.764975 -0.44105 0.156975 -0.27405 0.1545 -0.6113 -0.0065 -0.883 -0.160975 -0.2717 -0.455625 -0.43585 -0.771375 -0.42975Zm0.000925 0.98875c-0.0716 0.00655 -0.1426 -0.017725 -0.195175 -0.066775 -0.05255 -0.04905 -0.0817 -0.1182 -0.0801 -0.190075 -0.00395 -0.0749 0.023875 -0.147975 0.076625 -0.201275 0.052775 -0.053275 0.125575 -0.081825 0.200475 -0.0786 0.1505 0.00205 0.27085 0.1257 0.268825 0.276175 -0.02025 0.1556 -0.10495 0.2587 -0.27065 0.26055Z" clip-rule="evenodd" stroke-width="0.25"></path><path fill="#090b0b" fill-rule="evenodd" d="M5.78085 10.752425c-0.074975 -0.0022 -0.1474 0.0273 -0.19945 0.0813 -0.05205 0.053975 -0.078925 0.127425 -0.073975 0.202275 -0.00105 0.0718 0.028625 0.14065 0.08155 0.189175 0.05295 0.04855 0.1241 0.072175 0.19555 0.0649 0.168475 -0.00275 0.246725 -0.110475 0.268825 -0.26145 -0.019325 -0.1694 -0.110475 -0.264225 -0.2725 -0.2762Z" clip-rule="evenodd" stroke-width="0.25"></path><path fill="#090c0c" fill-rule="evenodd" d="M3.160775 10.7533c-0.074925 -0.003225 -0.147725 0.025325 -0.200475 0.078625 -0.052775 0.053275 -0.0806 0.12635 -0.076625 0.20125 -0.0016 0.071875 0.02755 0.141025 0.0801 0.190075 0.052575 0.04905 0.123575 0.073325 0.195175 0.066775 0.1657 -0.00185 0.2504 -0.10495 0.27065 -0.26055 -0.01565 -0.1703 -0.10955 -0.2633 -0.268825 -0.276175Z" clip-rule="evenodd" stroke-width="0.25"></path></svg>