<svg xmlns="http://www.w3.org/2000/svg" fill="none" viewBox="0 0 24 24" id="Mariadb-Icon--Streamline-Svg-Logos" height="24" width="24"><desc>Mariadb Icon Streamline Icon: https://streamlinehq.com</desc><path fill="#002b64" d="M23.234325 4.197675c-0.363175 0.0116 -0.248325 0.11625 -1.033075 0.309375 -0.792475 0.195025 -1.7605 0.135225 -2.61385 0.493125C17.039925 6.068525 16.528825 9.72 14.21295 11.02805c-1.731075 0.977775 -3.47755 1.055775 -5.04775 1.5478 -1.031875 0.323575 -2.160675 0.987175 -3.0956 1.79285 -0.7257 0.625575 -0.74465 1.17565 -1.5029 1.960275C3.755675 17.16825 1.343315 16.34315 0.25 17.627675c0.3521975 0.3561 0.506605 0.45585 1.200675 0.36345 -0.1437 0.272375 -0.99077 0.5019 -0.824955 0.90255 0.174475 0.4216 2.22233 0.707375 4.08393 -0.41655 0.866975 -0.523425 1.5575 -1.277875 2.90775 -1.457975 1.747275 -0.232875 3.7601 0.149375 5.78285 0.441075 -0.299925 0.894275 -0.9021 1.489 -1.38445 2.201225 -0.149375 0.160875 0.3 0.178925 0.8127 0.0817 0.92225 -0.22805 1.586875 -0.411675 2.2829 -0.8168 0.855075 -0.497775 0.98465 -1.773975 2.0338 -2.050125 0.58455 0.89845 2.174425 1.1107 3.16095 0.39205 -0.86565 -0.245025 -1.1049 -2.087625 -0.8127 -2.899575 0.2768 -0.768575 0.5503 -1.998 0.82905 -3.01395 0.299275 -1.0911 0.409675 -2.466325 0.77185 -3.0221 0.544925 -0.8362 1.147025 -1.12335 1.669775 -1.59485 0.522725 -0.471525 1.0012 -0.930525 0.9855 -2.00945 -0.00505 -0.347525 -0.18475 -0.541225 -0.5153 -0.530675Z" stroke-width="0.25"></path><path fill="#c49a6c" d="M22.456225 4.836975c0.087025 0.2967 0.2232 0.43285 0.8119 0.487325 -0.086 0.746375 -0.583875 1.1546 -1.1421 1.546275 -0.491225 0.344525 -1.029375 0.676275 -1.3752 1.214425 -0.354275 0.5513 -0.579175 2.43805 -1.128525 4.30135 -0.474825 1.61 -1.191875 3.2019 -2.44405 3.8994 -0.130825 -0.329275 0.016675 -0.937 -0.24355 -1.13675 -0.16835 0.48015 -0.3587 0.9383 -0.58165 1.364125 -0.734775 1.404375 -1.82265 2.4559 -3.640625 2.776975 0.8626 -1.16725 1.6874 -2.37265 1.70525 -4.3845 -0.607075 0.13135 -0.594175 1.5653 -1.217925 1.94865 -0.399875 0.043525 -0.805 0.04325 -1.2127 0.018775 -1.674375 -0.10035 -3.392 -0.603575 -4.95835 -0.101 -1.066525 0.3423 -1.93875 1.149775 -2.841875 1.541475 -1.061425 0.46035 -1.8652525 0.649675 -3.1870275 0.46035 -0.1678275 -0.226075 0.967355 -0.517825 0.8994675 -1.008675 -0.517295 -0.0572 -0.8176375 0.06815 -1.2673075 -0.13615 0.049645 -0.091475 0.122615 -0.1677 0.214475 -0.23115 0.824155 -0.570475 3.1651425 -0.13475 3.7916425 -0.7499 0.386725 -0.379425 0.640425 -0.776575 0.9031 -1.162675 0.25475 -0.3746 0.518075 -0.7388 0.919275 -1.067025 0.14815 -0.121175 0.3092 -0.240925 0.480175 -0.3578 0.683675 -0.467925 1.529475 -0.8923 2.361825 -1.184825 1.133875 -0.3986 2.282875 -0.43145 3.491425 -0.893225 0.746625 -0.28535 1.558525 -0.637825 2.220325 -1.131025 0.15715 -0.11725 0.305825 -0.242225 0.443275 -0.376175 1.889775 -1.8422 2.264375 -5.091775 5.2127 -5.394575 0.3565 -0.036625 0.648375 -0.024775 0.914075 -0.03285 0.3062 -0.009125 0.577225 -0.0447 0.871975 -0.210825Zm-3.59425 10.4005c0.035175 0.56315 0.3621 1.6805 0.650725 1.952025 -0.56525 0.137475 -1.539 -0.089625 -1.788775 -0.48835 0.12835 -0.575675 0.796275 -1.101975 1.13805 -1.463675Z" stroke-width="0.25"></path><path fill="#002b64" d="M22.668475 5.46745c-0.11365 0.23835 -0.331175 0.545675 -0.331175 1.152425 -0.00095 0.10415 -0.0791 0.175525 -0.08045 0.014925 0.005875 -0.593 0.162875 -0.849375 0.3296 -1.186275 0.0775 -0.13805 0.124175 -0.0811 0.082025 0.018925Zm-0.11445 -0.089775c-0.13405 0.227425 -0.456825 0.64225 -0.510175 1.246725 -0.009875 0.10365 -0.094175 0.1678 -0.08135 0.0076 0.05815 -0.590075 0.3161 -0.9594 0.5119 -1.28045 0.088825 -0.130575 0.130575 -0.069775 0.079625 0.026125Zm-0.1043 -0.118975c-0.152725 0.2153 -0.64955 0.713475 -0.753475 1.311425 -0.018675 0.1023 -0.108025 0.159375 -0.08175 0.0008 0.1075 -0.583275 0.5358 -1.041725 0.757875 -1.3449 0.0995 -0.122825 0.1359 -0.058675 0.07735 0.032675Zm-0.0931 -0.1327 -0.05025 0.05345c-0.22215 0.238175 -0.738225 0.819075 -0.910225 1.350775 -0.033075 0.0987 -0.1295 0.142725 -0.0811 -0.01065 0.18835 -0.56235 0.70705 -1.168025 0.96955 -1.436925 0.1159 -0.10765 0.14285 -0.03895 0.072025 0.04335Zm-2.666675 1.2039c0.1151 -0.49445 0.499625 -0.719725 1.163475 -0.664775 0.1602 0.738 -0.736275 1.0357 -1.163475 0.664775Z" stroke-width="0.25"></path></svg>